<mxfile host="app.diagrams.net" agent="Mozilla/5.0 (Windows NT 10.0; Win64; x64) AppleWebKit/537.36 (KHTML, like Gecko) Chrome/139.0.0.0 Safari/537.36" version="28.1.0">
  <diagram name="Página-1" id="c6h-6geRxYmIyiLPdqqJ">
    <mxGraphModel dx="3143" dy="763" grid="1" gridSize="13" guides="1" tooltips="1" connect="1" arrows="1" fold="1" page="1" pageScale="1" pageWidth="827" pageHeight="1169" math="0" shadow="0">
      <root>
        <mxCell id="0" />
        <mxCell id="1" parent="0" />
        <mxCell id="TG5YfpCn4OC87mrQLUdq-1" value="Inicio" style="strokeWidth=2;html=1;shape=mxgraph.flowchart.start_1;whiteSpace=wrap;" parent="1" vertex="1">
          <mxGeometry x="39" y="140" width="100" height="60" as="geometry" />
        </mxCell>
        <mxCell id="TG5YfpCn4OC87mrQLUdq-3" value="Digite o valor do produto" style="shape=parallelogram;html=1;strokeWidth=2;perimeter=parallelogramPerimeter;whiteSpace=wrap;rounded=1;arcSize=12;size=0.23;" parent="1" vertex="1">
          <mxGeometry x="-70" y="260" width="270" height="130" as="geometry" />
        </mxCell>
        <mxCell id="TG5YfpCn4OC87mrQLUdq-8" value="" style="edgeStyle=orthogonalEdgeStyle;rounded=0;orthogonalLoop=1;jettySize=auto;html=1;" parent="1" source="TG5YfpCn4OC87mrQLUdq-4" target="TG5YfpCn4OC87mrQLUdq-7" edge="1">
          <mxGeometry relative="1" as="geometry" />
        </mxCell>
        <mxCell id="TG5YfpCn4OC87mrQLUdq-4" value="Digite o tipo de pagamento&lt;div&gt;1- A Vista&lt;/div&gt;&lt;div&gt;2- Duas parcelas&lt;/div&gt;&lt;div&gt;3-Quatro parcela&lt;/div&gt;" style="shape=parallelogram;html=1;strokeWidth=2;perimeter=parallelogramPerimeter;whiteSpace=wrap;rounded=1;arcSize=12;size=0.23;" parent="1" vertex="1">
          <mxGeometry x="-100" y="440" width="256" height="150" as="geometry" />
        </mxCell>
        <mxCell id="TG5YfpCn4OC87mrQLUdq-5" style="edgeStyle=orthogonalEdgeStyle;rounded=0;orthogonalLoop=1;jettySize=auto;html=1;entryX=0.596;entryY=0.1;entryDx=0;entryDy=0;entryPerimeter=0;" parent="1" source="TG5YfpCn4OC87mrQLUdq-1" target="TG5YfpCn4OC87mrQLUdq-3" edge="1">
          <mxGeometry relative="1" as="geometry" />
        </mxCell>
        <mxCell id="TG5YfpCn4OC87mrQLUdq-6" style="edgeStyle=orthogonalEdgeStyle;rounded=0;orthogonalLoop=1;jettySize=auto;html=1;entryX=0.636;entryY=-0.004;entryDx=0;entryDy=0;entryPerimeter=0;" parent="1" source="TG5YfpCn4OC87mrQLUdq-3" target="TG5YfpCn4OC87mrQLUdq-4" edge="1">
          <mxGeometry relative="1" as="geometry" />
        </mxCell>
        <mxCell id="TG5YfpCn4OC87mrQLUdq-11" value="" style="edgeStyle=orthogonalEdgeStyle;rounded=0;orthogonalLoop=1;jettySize=auto;html=1;" parent="1" source="TG5YfpCn4OC87mrQLUdq-7" target="TG5YfpCn4OC87mrQLUdq-10" edge="1">
          <mxGeometry relative="1" as="geometry" />
        </mxCell>
        <mxCell id="TG5YfpCn4OC87mrQLUdq-17" value="Sim" style="edgeLabel;html=1;align=center;verticalAlign=middle;resizable=0;points=[];" parent="TG5YfpCn4OC87mrQLUdq-11" vertex="1" connectable="0">
          <mxGeometry x="-0.1111" y="-4" relative="1" as="geometry">
            <mxPoint as="offset" />
          </mxGeometry>
        </mxCell>
        <mxCell id="TG5YfpCn4OC87mrQLUdq-19" value="" style="edgeStyle=orthogonalEdgeStyle;rounded=0;orthogonalLoop=1;jettySize=auto;html=1;" parent="1" source="TG5YfpCn4OC87mrQLUdq-7" target="TG5YfpCn4OC87mrQLUdq-18" edge="1">
          <mxGeometry relative="1" as="geometry">
            <Array as="points">
              <mxPoint x="546" y="514" />
              <mxPoint x="546" y="514" />
            </Array>
          </mxGeometry>
        </mxCell>
        <mxCell id="TG5YfpCn4OC87mrQLUdq-20" value="Não" style="edgeLabel;html=1;align=center;verticalAlign=middle;resizable=0;points=[];" parent="TG5YfpCn4OC87mrQLUdq-19" vertex="1" connectable="0">
          <mxGeometry x="-0.1421" relative="1" as="geometry">
            <mxPoint y="1" as="offset" />
          </mxGeometry>
        </mxCell>
        <mxCell id="TG5YfpCn4OC87mrQLUdq-7" value="Tipo de Pagamento ==1" style="rhombus;whiteSpace=wrap;html=1;strokeWidth=2;rounded=1;arcSize=12;" parent="1" vertex="1">
          <mxGeometry x="247" y="442" width="182" height="143" as="geometry" />
        </mxCell>
        <mxCell id="TG5YfpCn4OC87mrQLUdq-10" value="Result ==valor-&amp;nbsp;&lt;div&gt;(valor*0.1)&lt;/div&gt;" style="whiteSpace=wrap;html=1;strokeWidth=2;rounded=1;arcSize=12;" parent="1" vertex="1">
          <mxGeometry x="278" y="706.5" width="120" height="60" as="geometry" />
        </mxCell>
        <mxCell id="TG5YfpCn4OC87mrQLUdq-15" style="edgeStyle=orthogonalEdgeStyle;rounded=0;orthogonalLoop=1;jettySize=auto;html=1;" parent="1" source="TG5YfpCn4OC87mrQLUdq-13" target="TG5YfpCn4OC87mrQLUdq-16" edge="1">
          <mxGeometry relative="1" as="geometry">
            <mxPoint x="6.5" y="884" as="targetPoint" />
          </mxGeometry>
        </mxCell>
        <mxCell id="TG5YfpCn4OC87mrQLUdq-13" value="Valor do desconto&lt;div&gt;é&amp;nbsp;&lt;/div&gt;&lt;div&gt;Result&lt;/div&gt;" style="strokeWidth=2;html=1;shape=mxgraph.flowchart.document2;whiteSpace=wrap;size=0.25;" parent="1" vertex="1">
          <mxGeometry x="-52" y="676" width="117" height="104" as="geometry" />
        </mxCell>
        <mxCell id="TG5YfpCn4OC87mrQLUdq-14" style="edgeStyle=orthogonalEdgeStyle;rounded=0;orthogonalLoop=1;jettySize=auto;html=1;entryX=0.982;entryY=0.628;entryDx=0;entryDy=0;entryPerimeter=0;" parent="1" source="TG5YfpCn4OC87mrQLUdq-10" target="TG5YfpCn4OC87mrQLUdq-13" edge="1">
          <mxGeometry relative="1" as="geometry" />
        </mxCell>
        <mxCell id="TG5YfpCn4OC87mrQLUdq-16" value="Fim" style="strokeWidth=2;html=1;shape=mxgraph.flowchart.terminator;whiteSpace=wrap;" parent="1" vertex="1">
          <mxGeometry x="-43.5" y="854" width="100" height="60" as="geometry" />
        </mxCell>
        <mxCell id="TG5YfpCn4OC87mrQLUdq-22" value="" style="edgeStyle=orthogonalEdgeStyle;rounded=0;orthogonalLoop=1;jettySize=auto;html=1;" parent="1" source="TG5YfpCn4OC87mrQLUdq-18" target="TG5YfpCn4OC87mrQLUdq-21" edge="1">
          <mxGeometry relative="1" as="geometry" />
        </mxCell>
        <mxCell id="TG5YfpCn4OC87mrQLUdq-24" value="" style="edgeStyle=orthogonalEdgeStyle;rounded=0;orthogonalLoop=1;jettySize=auto;html=1;" parent="1" source="TG5YfpCn4OC87mrQLUdq-18" target="TG5YfpCn4OC87mrQLUdq-23" edge="1">
          <mxGeometry relative="1" as="geometry" />
        </mxCell>
        <mxCell id="TG5YfpCn4OC87mrQLUdq-18" value="Tipo Pagamento == 2" style="rhombus;whiteSpace=wrap;html=1;strokeWidth=2;rounded=1;arcSize=12;" parent="1" vertex="1">
          <mxGeometry x="559" y="440" width="181" height="156" as="geometry" />
        </mxCell>
        <mxCell id="TG5YfpCn4OC87mrQLUdq-29" value="" style="edgeStyle=orthogonalEdgeStyle;rounded=0;orthogonalLoop=1;jettySize=auto;html=1;" parent="1" source="TG5YfpCn4OC87mrQLUdq-21" target="TG5YfpCn4OC87mrQLUdq-28" edge="1">
          <mxGeometry relative="1" as="geometry" />
        </mxCell>
        <mxCell id="TG5YfpCn4OC87mrQLUdq-21" value="Tipo Pagamento==3" style="rhombus;whiteSpace=wrap;html=1;strokeWidth=2;rounded=1;arcSize=12;" parent="1" vertex="1">
          <mxGeometry x="884" y="460" width="156.5" height="116" as="geometry" />
        </mxCell>
        <mxCell id="TG5YfpCn4OC87mrQLUdq-26" style="edgeStyle=orthogonalEdgeStyle;rounded=0;orthogonalLoop=1;jettySize=auto;html=1;entryX=1;entryY=0.5;entryDx=0;entryDy=0;" parent="1" source="TG5YfpCn4OC87mrQLUdq-23" target="TG5YfpCn4OC87mrQLUdq-10" edge="1">
          <mxGeometry relative="1" as="geometry" />
        </mxCell>
        <mxCell id="TG5YfpCn4OC87mrQLUdq-30" style="edgeStyle=orthogonalEdgeStyle;rounded=0;orthogonalLoop=1;jettySize=auto;html=1;entryX=1;entryY=0.5;entryDx=0;entryDy=0;entryPerimeter=0;" parent="1" source="TG5YfpCn4OC87mrQLUdq-23" target="TG5YfpCn4OC87mrQLUdq-31" edge="1">
          <mxGeometry relative="1" as="geometry">
            <mxPoint x="637" y="884" as="targetPoint" />
            <Array as="points">
              <mxPoint x="650" y="884" />
            </Array>
          </mxGeometry>
        </mxCell>
        <mxCell id="TG5YfpCn4OC87mrQLUdq-23" value="Result = valor/2" style="whiteSpace=wrap;html=1;strokeWidth=2;rounded=1;arcSize=12;" parent="1" vertex="1">
          <mxGeometry x="589.5" y="706.5" width="120" height="60" as="geometry" />
        </mxCell>
        <mxCell id="TG5YfpCn4OC87mrQLUdq-28" value="Result =(Valor/4)*1,02" style="whiteSpace=wrap;html=1;strokeWidth=2;rounded=1;arcSize=12;" parent="1" vertex="1">
          <mxGeometry x="902.25" y="706.5" width="120" height="60" as="geometry" />
        </mxCell>
        <mxCell id="TG5YfpCn4OC87mrQLUdq-31" value="" style="strokeWidth=2;html=1;shape=mxgraph.flowchart.document2;whiteSpace=wrap;size=0.25;" parent="1" vertex="1">
          <mxGeometry x="429" y="854" width="100" height="60" as="geometry" />
        </mxCell>
        <mxCell id="TG5YfpCn4OC87mrQLUdq-33" style="edgeStyle=orthogonalEdgeStyle;rounded=0;orthogonalLoop=1;jettySize=auto;html=1;entryX=1;entryY=0.5;entryDx=0;entryDy=0;entryPerimeter=0;" parent="1" source="TG5YfpCn4OC87mrQLUdq-31" target="TG5YfpCn4OC87mrQLUdq-16" edge="1">
          <mxGeometry relative="1" as="geometry" />
        </mxCell>
        <mxCell id="TG5YfpCn4OC87mrQLUdq-37" value="" style="strokeWidth=2;html=1;shape=mxgraph.flowchart.document2;whiteSpace=wrap;size=0.25;" parent="1" vertex="1">
          <mxGeometry x="429" y="988" width="100" height="60" as="geometry" />
        </mxCell>
        <mxCell id="TG5YfpCn4OC87mrQLUdq-38" style="edgeStyle=orthogonalEdgeStyle;rounded=0;orthogonalLoop=1;jettySize=auto;html=1;entryX=1;entryY=0.5;entryDx=0;entryDy=0;entryPerimeter=0;" parent="1" source="TG5YfpCn4OC87mrQLUdq-28" target="TG5YfpCn4OC87mrQLUdq-37" edge="1">
          <mxGeometry relative="1" as="geometry">
            <Array as="points">
              <mxPoint x="962" y="1018" />
            </Array>
          </mxGeometry>
        </mxCell>
        <mxCell id="TG5YfpCn4OC87mrQLUdq-39" style="edgeStyle=orthogonalEdgeStyle;rounded=0;orthogonalLoop=1;jettySize=auto;html=1;entryX=0.5;entryY=1;entryDx=0;entryDy=0;entryPerimeter=0;" parent="1" source="TG5YfpCn4OC87mrQLUdq-37" target="TG5YfpCn4OC87mrQLUdq-16" edge="1">
          <mxGeometry relative="1" as="geometry" />
        </mxCell>
        <mxCell id="TG5YfpCn4OC87mrQLUdq-40" value="&lt;span class=&quot;fontstyle0&quot;&gt;&amp;nbsp;Caso o pagamento seja parcelado em 2x, imprima na tela o valor de cada prestação (VALORTOTAL/2). ;&lt;/span&gt; &lt;div&gt;&lt;br&gt;&lt;/div&gt;" style="text;html=1;align=center;verticalAlign=middle;resizable=0;points=[];autosize=1;strokeColor=none;fillColor=none;" parent="1" vertex="1">
          <mxGeometry x="-832" y="39" width="585" height="39" as="geometry" />
        </mxCell>
        <mxCell id="TG5YfpCn4OC87mrQLUdq-41" value="Faça um algoritmo que recebe o valor de um produto e o tipo de pagamento. Caso o pagamento seja A VISTA, imprima o valor com desconto de 10%." style="text;html=1;align=center;verticalAlign=middle;resizable=0;points=[];autosize=1;strokeColor=none;fillColor=none;" parent="1" vertex="1">
          <mxGeometry x="-832" y="13" width="832" height="26" as="geometry" />
        </mxCell>
        <mxCell id="TG5YfpCn4OC87mrQLUdq-42" value="Caso o pagamento seja parcelado em 4x, imprima na tela o valor de cada prestação, sabendo que o valor de uma prestação recebe o acréscimo de 2%" style="text;html=1;align=center;verticalAlign=middle;resizable=0;points=[];autosize=1;strokeColor=none;fillColor=none;" parent="1" vertex="1">
          <mxGeometry x="-829" y="65" width="832" height="26" as="geometry" />
        </mxCell>
      </root>
    </mxGraphModel>
  </diagram>
</mxfile>
